<svg xmlns="http://www.w3.org/2000/svg" width="640" height="390" viewBox="0 0 640 390" role="img"><title>ServicePlus logo</title><g fill="none" transform="translate(192 0)">
  
  <path d="M103.26,56.14 L113.76,38.12 L142.24,38.12 L152.74,56.14 L161.32,59.69 L181.49,54.38 L201.62,74.51 L196.31,94.68 L199.86,103.26 L217.88,113.76 L217.88,142.24 L199.86,152.74 L196.31,161.32 L201.62,181.49 L181.49,201.62 L161.32,196.31 L152.74,199.86 L142.24,217.88 L113.76,217.88 L103.26,199.86 L94.68,196.31 L74.51,201.62 L54.38,181.49 L59.69,161.32 L56.14,152.74 L38.12,142.24 L38.12,113.76 L56.14,103.26 L59.69,94.68 L54.38,74.51 L74.51,54.38 L94.68,59.69 Z" stroke="#142C38" stroke-width="13" stroke-linecap="round" stroke-linejoin="round"/>
  <path d="m153 76-17 17 18 18 17-17c7 16 2 34-12 44-9 6-19 7-28 4l-34 34a13 13 0 0 1-18-18l34-34c-3-9-2-19 4-28 8-13 23-19 36-20Z" fill="#0284C7"/>
  <g stroke="#0284C7" stroke-width="11" stroke-linecap="round" stroke-linejoin="round">
    <path d="M178 128a50 50 0 0 1-40 49"/>
    <path d="m144 167-8 11 12 3"/>
  </g>
</g><g transform="translate(126.83000000000001 330) scale(1)"><path fill="#142C38" d="M19.546 0.6960000000000001Q15.486 0.6960000000000001 11.919 -0.7829999999999999Q8.352 -2.262 5.771 -4.988Q3.19 -7.714 1.9140000000000001 -11.426L9.280000000000001 -14.732000000000001Q10.904 -11.194 13.775 -9.164000000000001Q16.646 -7.134 20.126 -7.134Q21.982000000000003 -7.134 23.316000000000003 -7.714Q24.650000000000002 -8.294 25.404000000000003 -9.309000000000001Q26.158 -10.324 26.158 -11.716000000000001Q26.158 -13.224 25.23 -14.297Q24.302 -15.370000000000001 22.330000000000002 -16.008L13.862 -18.792Q8.700000000000001 -20.474 6.090000000000001 -23.576999999999998Q3.48 -26.68 3.48 -31.03Q3.48 -34.858000000000004 5.365 -37.758Q7.25 -40.658 10.643 -42.282Q14.036000000000001 -43.906 18.444000000000003 -43.906Q22.330000000000002 -43.906 25.636000000000003 -42.572Q28.942 -41.238 31.349 -38.802Q33.756 -36.366 34.974000000000004 -32.944L27.666 -29.638Q26.448 -32.654 24.012 -34.365Q21.576 -36.076 18.444000000000003 -36.076Q16.646 -36.076 15.254000000000001 -35.496Q13.862 -34.916000000000004 13.108 -33.843Q12.354000000000001 -32.77 12.354000000000001 -31.378Q12.354000000000001 -29.87 13.34 -28.739Q14.326 -27.608 16.298000000000002 -26.970000000000002L24.592000000000002 -24.302Q29.812 -22.62 32.393 -19.604Q34.974000000000004 -16.588 34.974000000000004 -12.238000000000001Q34.974000000000004 -8.468 33.002 -5.539Q31.03 -2.6100000000000003 27.579 -0.9570000000000001Q24.128 0.6960000000000001 19.546 0.6960000000000001ZM40.154 0.0V-43.21H69.212V-35.38H49.144000000000005V-25.578000000000003H68.052V-17.748H49.144000000000005V-7.83H69.212V0.0ZM73.116 0.0V-43.21H89.646Q94.112 -43.21 97.56299999999999 -41.644000000000005Q101.014 -40.078 102.98599999999999 -37.004000000000005Q104.958 -33.93 104.958 -29.406000000000002Q104.958 -24.998 102.928 -21.895000000000003Q100.898 -18.792 97.476 -17.226000000000003L107.336 0.0H97.244L86.572 -19.082L92.372 -15.66H82.106V0.0ZM82.106 -23.490000000000002H89.704Q91.618 -23.490000000000002 93.00999999999999 -24.244Q94.402 -24.998 95.185 -26.332Q95.96799999999999 -27.666 95.96799999999999 -29.406000000000002Q95.96799999999999 -31.204 95.185 -32.538Q94.402 -33.872 93.00999999999999 -34.626000000000005Q91.618 -35.38 89.704 -35.38H82.106ZM122.202 0.0 107.412 -43.21H117.272L128.40800000000002 -8.526H126.436L137.572 -43.21H147.43200000000002L132.642 0.0ZM150.698 0.0V-43.21H159.68800000000002V0.0ZM186.67600000000002 0.6960000000000001Q182.036 0.6960000000000001 178.063 -0.986Q174.09 -2.668 171.132 -5.684000000000001Q168.174 -8.700000000000001 166.52100000000002 -12.760000000000002Q164.868 -16.82 164.868 -21.634Q164.868 -26.448 166.49200000000002 -30.537000000000003Q168.116 -34.626000000000005 171.074 -37.613Q174.032 -40.6 178.005 -42.253Q181.978 -43.906 186.67600000000002 -43.906Q191.374 -43.906 195.115 -42.34Q198.856 -40.774 201.466 -38.164Q204.07600000000002 -35.554 205.178 -32.364000000000004L197.232 -28.536Q196.13 -31.668000000000003 193.375 -33.727000000000004Q190.62 -35.786 186.67600000000002 -35.786Q182.848 -35.786 179.948 -33.988Q177.048 -32.190000000000005 175.453 -29.029000000000003Q173.858 -25.868000000000002 173.858 -21.634Q173.858 -17.400000000000002 175.453 -14.21Q177.048 -11.020000000000001 179.948 -9.222000000000001Q182.848 -7.424 186.67600000000002 -7.424Q190.62 -7.424 193.375 -9.483Q196.13 -11.542 197.232 -14.674000000000001L205.178 -10.846Q204.07600000000002 -7.656000000000001 201.466 -5.046Q198.856 -2.436 195.115 -0.8699999999999999Q191.374 0.6960000000000001 186.67600000000002 0.6960000000000001ZM209.72 0.0V-43.21H238.778V-35.38H218.71V-25.578000000000003H237.618V-17.748H218.71V-7.83H238.778V0.0Z"/><path fill="#0284C7" transform="translate(241.05399999999997 0)" d="M3.8280000000000003 0.0V-43.21H20.416Q24.882 -43.21 28.333000000000002 -41.644000000000005Q31.784000000000002 -40.078 33.756 -37.004000000000005Q35.728 -33.93 35.728 -29.406000000000002Q35.728 -24.998 33.727000000000004 -21.924Q31.726000000000003 -18.85 28.275000000000002 -17.255000000000003Q24.824 -15.66 20.416 -15.66H12.818000000000001V0.0ZM12.818000000000001 -23.490000000000002H20.474Q22.388 -23.490000000000002 23.78 -24.244Q25.172 -24.998 25.955000000000002 -26.332Q26.738000000000003 -27.666 26.738000000000003 -29.406000000000002Q26.738000000000003 -31.204 25.955000000000002 -32.538Q25.172 -33.872 23.78 -34.626000000000005Q22.388 -35.38 20.474 -35.38H12.818000000000001ZM40.27 0.0V-43.21H49.260000000000005V-7.83H67.53V0.0ZM87.964 0.6960000000000001Q82.86 0.6960000000000001 78.858 -1.45Q74.85600000000001 -3.596 72.565 -7.337000000000001Q70.274 -11.078000000000001 70.274 -15.834000000000001V-43.21H79.26400000000001V-16.414Q79.26400000000001 -13.862 80.39500000000001 -11.803Q81.52600000000001 -9.744 83.498 -8.584Q85.47 -7.424 87.964 -7.424Q90.516 -7.424 92.459 -8.584Q94.402 -9.744 95.533 -11.803Q96.664 -13.862 96.664 -16.414V-43.21H105.654V-15.834000000000001Q105.654 -11.078000000000001 103.363 -7.337000000000001Q101.072 -3.596 97.07000000000001 -1.45Q93.06800000000001 0.6960000000000001 87.964 0.6960000000000001ZM127.30600000000001 0.6960000000000001Q123.24600000000001 0.6960000000000001 119.679 -0.7829999999999999Q116.11200000000001 -2.262 113.531 -4.988Q110.95 -7.714 109.674 -11.426L117.04 -14.732000000000001Q118.664 -11.194 121.535 -9.164000000000001Q124.406 -7.134 127.88600000000001 -7.134Q129.74200000000002 -7.134 131.07600000000002 -7.714Q132.41 -8.294 133.164 -9.309000000000001Q133.918 -10.324 133.918 -11.716000000000001Q133.918 -13.224 132.99 -14.297Q132.062 -15.370000000000001 130.09 -16.008L121.622 -18.792Q116.46000000000001 -20.474 113.85000000000001 -23.576999999999998Q111.24000000000001 -26.68 111.24000000000001 -31.03Q111.24000000000001 -34.858000000000004 113.125 -37.758Q115.01 -40.658 118.403 -42.282Q121.796 -43.906 126.20400000000001 -43.906Q130.09 -43.906 133.39600000000002 -42.572Q136.702 -41.238 139.109 -38.802Q141.51600000000002 -36.366 142.734 -32.944L135.42600000000002 -29.638Q134.208 -32.654 131.772 -34.365Q129.336 -36.076 126.20400000000001 -36.076Q124.406 -36.076 123.01400000000001 -35.496Q121.622 -34.916000000000004 120.868 -33.843Q120.114 -32.77 120.114 -31.378Q120.114 -29.87 121.10000000000001 -28.739Q122.08600000000001 -27.608 124.058 -26.970000000000002L132.352 -24.302Q137.572 -22.62 140.15300000000002 -19.604Q142.734 -16.588 142.734 -12.238000000000001Q142.734 -8.468 140.762 -5.539Q138.79000000000002 -2.6100000000000003 135.339 -0.9570000000000001Q131.888 0.6960000000000001 127.30600000000001 0.6960000000000001Z"/></g></svg>