<svg xmlns="http://www.w3.org/2000/svg" width="256" height="256" viewBox="0 0 256 256" role="img"><title>ServicePlus beeldmerk</title><g fill="none">
  
  <path d="M103.26,56.14 L113.76,38.12 L142.24,38.12 L152.74,56.14 L161.32,59.69 L181.49,54.38 L201.62,74.51 L196.31,94.68 L199.86,103.26 L217.88,113.76 L217.88,142.24 L199.86,152.74 L196.31,161.32 L201.62,181.49 L181.49,201.62 L161.32,196.31 L152.74,199.86 L142.24,217.88 L113.76,217.88 L103.26,199.86 L94.68,196.31 L74.51,201.62 L54.38,181.49 L59.69,161.32 L56.14,152.74 L38.12,142.24 L38.12,113.76 L56.14,103.26 L59.69,94.68 L54.38,74.51 L74.51,54.38 L94.68,59.69 Z" stroke="#142C38" stroke-width="13" stroke-linecap="round" stroke-linejoin="round"/>
  <path d="m153 76-17 17 18 18 17-17c7 16 2 34-12 44-9 6-19 7-28 4l-34 34a13 13 0 0 1-18-18l34-34c-3-9-2-19 4-28 8-13 23-19 36-20Z" fill="#0284C7"/>
  <g stroke="#0284C7" stroke-width="11" stroke-linecap="round" stroke-linejoin="round">
    <path d="M178 128a50 50 0 0 1-40 49"/>
    <path d="m144 167-8 11 12 3"/>
  </g>
</g></svg>